# AST/ASF file generated using VICON BodyLanguage
# -----------------------------------------------
:version 1.10
:name VICON
:units
  mass 1.0
  length 0.1
  angle deg
:documentation
   .ast/.asf automatically generated from VICON data using
   VICON BodyBuilder and BodyLanguage model FULLBODY5.MOD
:root
   order TX TY TZ RZ RY RX
   axis XYZ
   position 0 0 0  
   orientation 0 -0 0 
:bonedata
  begin
     id 1 
     name lhipjoint
     direction 0.961525 -0.229516 0.150972 
     length 0.502153 
     axis 0 -0 0  XYZ
  end
  begin
     id 2 
     name lfemur
     direction 0.173648 -0.984808 0  
     length 1.83052  
     axis 0 -0 10  XYZ
    dof rx ry rz
    limits (-180.0 180.0)
           (-180.0 180.0)
           (-180.0 180.0)
  end
  begin
     id 3 
     name ltibia
     direction 0.173629 -0.984811 0   
     length 1.50296   
     axis 0 -0 10   XYZ
    dof rx ry rz
    limits (-180.0 180.0)
           (-180.0 180.0)
           (-180.0 180.0)
  end
  begin
     id 4 
     name lfoot
     direction 7.59329e-012 -0.227408 0.9738   
     length 0.574743   
     axis -90 -1.73656e-015 10   XYZ
    dof rx ry rz
    limits (-180.0 180.0)
           (-180.0 180.0)
           (-180.0 180.0)
  end
  begin
     id 5 
     name ltoes
     direction 7.79885e-012 -4.41741e-011 1   
     length 0.28489   
     axis -90 -1.73656e-015 10   XYZ
    dof rx ry rz
    limits (-180.0 180.0)
           (-180.0 180.0)
           (-180.0 180.0)
  end
  begin
     id 6 
     name rhipjoint
     direction -0.970498 -0.201437 0.132502   
     length 0.572149  
     axis 0 -0 0  XYZ 
  end
  begin
     id 7 
     name rfemur
     direction -0.173648 -0.984808 0   
     length 1.71866   
     axis 0 -0 -10   XYZ
    dof rx ry rz
    limits (-180.0 180.0)
           (-180.0 180.0)
           (-180.0 180.0)
  end
  begin
     id 8 
     name rtibia
     direction -0.173624 -0.984812 0   
     length 1.42623   
     axis 0 -0 -10   XYZ
    dof rx ry rz
    limits (-180.0 180.0)
           (-180.0 180.0)
           (-180.0 180.0)
 end
 begin
     id 9 
     name rfoot
     direction -7.12931e-012 -0.404275 0.914637   
     length 0.524692  
     axis -90 1.73656e-015 -10   XYZ
    dof rx ry rz
    limits (-180.0 180.0)
           (-180.0 180.0)
           (-180.0 180.0)
  end
  begin
     id 10 
     name rtoes
     direction -7.79289e-012 -4.41454e-011 1   
     length 0.254983   
     axis -90 1.73656e-015 -10   XYZ
    dof rx ry rz
    limits (-180.0 180.0)
           (-180.0 180.0)
           (-180.0 180.0)
  end
  begin
     id 11 
     name lowerback
     direction -0.0214086 0.993738 0.109665   
     length 0.417614   
     axis 0 -0 0   XYZ
    dof rx ry rz
    limits (-180.0 180.0)
           (-180.0 180.0)
           (-180.0 180.0)
  end
  begin
     id 12 
     name upperback
     direction 8.15962e-005 0.99996 0.00893412   
     length 0.419234   
     axis 0 -0 0   XYZ
    dof rx ry rz
    limits (-180.0 180.0)
           (-180.0 180.0)
           (-180.0 180.0)
  end
  begin
     id 13 
     name thorax
     direction 0.00826031 0.999067 -0.0423848   
     length 0.424697   
     axis 0 -0 0   XYZ
    dof rx ry rz
    limits (-180.0 180.0)
           (-180.0 180.0)
           (-180.0 180.0)
  end
  begin
     id 14 
     name lowerneck
     direction -0.0196262 0.994272 -0.105058   
     length 0.355877   
     axis 0 -0 0   XYZ
    dof rx ry rz
    limits (-180.0 180.0)
           (-180.0 180.0)
           (-180.0 180.0)
  end
  begin
     id 15 
     name upperneck
     direction 0.000117372 0.999091 0.0426261   
     length 0.351054   
     axis 0 -0 0   XYZ
    dof rx ry rz
    limits (-180.0 180.0)
           (-180.0 180.0)
           (-180.0 180.0)
  end
  begin
     id 16
     name head
     direction 0.00157618 0.999651 0.0263619  
     length 0.374844  
     axis 0 -0 0   XYZ
    dof rx ry rz
    limits (-180.0 180.0)
           (-180.0 180.0)
           (-180.0 180.0)
  end
  begin
     id 17 
     name lshoulderjoint
     direction 0.981627 -0.190809 0  
     length 0.701763  
     axis 0 -0 -11   XYZ
    dof rx ry rz
    limits (-180.0 180.0)
           (-180.0 180.0)
           (-180.0 180.0)
  end
  begin
     id 18 
     name lhumerus
     direction 0.48481 -0.87462 -1.80676e-026   
     length 0.994704   
     axis -180 5.14477e-009 -151   XYZ
    dof rx ry rz
    limits (-180.0 180.0)
           (-180.0 180.0)
           (-180.0 180.0)
  end
  begin
     id 19
     name lradius
     direction 0.48481 -0.87462 -3.2569e-026   
     length 0.617638   
     axis -180 5.14477e-009 -151   XYZ
    dof rx ry rz
    limits (-180.0 180.0)
           (-180.0 180.0)
           (-180.0 180.0)
  end
  begin
     id 20
     name lwrist
     direction 0.48481 -0.87462 -6.73202e-026   
     length 0.308819   
     axis -180 5.14477e-009 -151   XYZ
    dof rx ry rz
    limits (-180.0 180.0)
           (-180.0 180.0)
           (-180.0 180.0)
  end
  begin
     id 21 
     name lhand
     direction 0.478366 -0.863761 -0.158376   
     length 0.291656   
     axis -180 5.14477e-009 -151   XYZ
    dof rx ry rz
    limits (-180.0 180.0)
           (-180.0 180.0)
           (-180.0 180.0)
  end
  begin
     id 22 
     name rshoulderjoint
     direction -0.981627 -0.190809 0   
     length 0.66654  
     axis 0 -0 11   XYZ 
    dof rx ry rz
    limits (-180.0 180.0)
           (-180.0 180.0)
           (-180.0 180.0)
  end
  begin
     id 23 
     name rhumerus
     direction -0.48481 -0.87462 1.77576e-026  
     length 1.15089   
     axis 180 5.14477e-009 151   XYZ
    dof rx ry rz
    limits (-180.0 180.0)
           (-180.0 180.0)
           (-180.0 180.0)
  end
  begin
     id 24 
     name rradius
     direction -0.48481 -0.87462 3.79421e-026   
     length 0.613887   
     axis 180 5.14477e-009 151   XYZ
    dof rx ry rz
    limits (-180.0 180.0)
           (-180.0 180.0)
           (-180.0 180.0)
  end
  begin
     id 25 
     name rwrist
     direction -0.48481 -0.87462 5.43623e-026   
     length 0.306944   
     axis 180 5.14477e-009 151   XYZ
    dof rx ry rz
    limits (-180.0 180.0)
           (-180.0 180.0)
           (-180.0 180.0)
  end
  begin
     id 26
     name rhand
     direction -0.479273 -0.864638 -0.150661   
     length 0.306429   
     axis 180 5.14477e-009 151   XYZ
    dof rx ry rz
    limits (-180.0 180.0)
           (-180.0 180.0)
           (-180.0 180.0)
  end
:hierarchy
  begin
    root lhipjoint rhipjoint lowerback 
    lhipjoint lfemur
    lfemur ltibia
    ltibia lfoot
    lfoot ltoes
    rhipjoint rfemur
    rfemur rtibia
    rtibia rfoot
    rfoot rtoes
    lowerback upperback
    upperback thorax
    thorax lowerneck lshoulderjoint rshoulderjoint
    lowerneck upperneck
    upperneck head
    lshoulderjoint lhumerus
    lhumerus lradius
    lradius lwrist
    lwrist lhand
    rshoulderjoint rhumerus
    rhumerus rradius
    rradius rwrist
    rwrist rhand
  end

:FULLY-SPECIFIED
:DEGREES
323
root 5.66015 3.60069 -0.522483 87.1407 -73.6331 81.6089
lowerback -13.7233 -1.21222 -2.4223
upperback -3.65123 -1.39328 -0.883819
thorax 3.87371 -0.773581 0.203827
lowerneck 15.6341 6.12297 -0.937063
upperneck 10.3376 7.52983 -6.50996
head 0.94735 3.47509 -2.20756
rshoulderjoint 2.26795 -3.30927 -45.4529
rhumerus 32.0252 -73.0263 -51.9165
rradius 46.2203 1.46306e-013 -3.65764e-014
rwrist -1.93279e-013 8.74542 -2.33303e-013
rhand 26.6738 -8.51326 13.2649
lshoulderjoint 6.11375 10.9662 40.3824
lhumerus 92.1769 67.6653 106.104
lradius 38.4286 0 1.09729e-013
lwrist 1.2184e-013 4.54141 1.64314e-013
lhand 27.0121 -4.50103 7.2782
rfemur -17.4961 -6.05992 13.5992
rtibia -4.57205e-014 2.46493e-014 -1.19271e-014
rfoot -2.6115 15.6298 -10.3654
rtoes 1.19271e-013 -1.00337e-013 1.68569e-013
lfemur -15.8519 -11.8854 -17.2457
ltibia 30.1421 2.70347e-014 2.14687e-014
lfoot -16.3218 -1.34251 17.3717
ltoes 7.31528e-014 -3.12092e-014 -8.74653e-015
324
root 5.67402 3.60039 -0.518921 86.1691 -73.6374 80.7695
lowerback -13.555 -1.26788 -2.35319
upperback -3.60595 -1.47922 -0.815797
thorax 3.83208 -0.813612 0.224864
lowerneck 15.5476 6.06417 -1.00444
upperneck 10.2583 7.4481 -6.49778
head 0.928708 3.43578 -2.18704
rshoulderjoint 2.24303 -3.27172 -45.462
rhumerus 32.0991 -73.1831 -51.9881
rradius 46.2008 6.52014e-014 -2.41722e-013
rwrist -1.30308e-013 8.08881 -4.17627e-013
rhand 26.7297 -7.88212 13.0915
lshoulderjoint 6.10763 10.9605 40.3701
lhumerus 92.4646 67.5807 106.533
lradius 38.4122 2.79094e-013 3.38729e-013
lwrist 1.95855e-013 4.66268 1.62747e-013
lhand 26.9402 -4.61092 7.46555
rfemur -17.6947 -6.19073 13.6869
rtibia 4.37326e-015 1.74931e-014 -9.54166e-015
rfoot -2.41141 15.6787 -10.4359
rtoes -3.57812e-014 -7.85696e-014 1.30403e-013
lfemur -15.9908 -11.745 -17.2603
ltibia 30.7991 2.70347e-014 5.56597e-015
lfoot -16.3479 -1.46934 17.2537
ltoes 3.97569e-014 3.97569e-015 -4.05521e-014
325
root 5.68821 3.60009 -0.515532 85.3718 -73.6434 80.0478
lowerback -13.3672 -1.30812 -2.34912
upperback -3.56782 -1.53604 -0.772217
thorax 3.77239 -0.839713 0.262652
lowerneck 15.4827 5.9885 -1.04861
upperneck 10.1538 7.34616 -6.47896
head 0.89828 3.38881 -2.16874
rshoulderjoint 2.31755 -3.37601 -45.4987
rhumerus 32.331 -73.1369 -52.2257
rradius 46.1727 4.29375e-014 1.09729e-013
rwrist 4.43236e-013 8.18796 2.24932e-014
rhand 26.5933 -7.99305 13.0022
lshoulderjoint 6.09674 10.9496 40.3502
lhumerus 92.75 67.4674 106.936
lradius 38.4062 1.4233e-013 2.22639e-014
lwrist 9.19493e-014 4.70252 -1.53182e-013
lhand 26.8474 -4.67708 7.63826
rfemur -17.907 -6.28537 13.7248
rtibia 2.10712e-014 6.36111e-015 -5.56597e-015
rfoot -2.17632 15.8046 -10.5022
rtoes -4.03533e-014 7.9166e-014 3.18055e-014
lfemur -16.1336 -11.5129 -17.328
ltibia 31.4686 4.77083e-015 -2.38542e-014
lfoot -16.3444 -1.39205 16.9792
ltoes 6.67916e-014 5.04913e-014 -1.51076e-014
326
root 5.70253 3.59967 -0.511701 84.7688 -73.6244 79.5411
lowerback -13.2222 -1.34138 -2.3285
upperback -3.5442 -1.58694 -0.696051
thorax 3.72119 -0.863144 0.32547
lowerneck 15.4433 5.93121 -1.16953
upperneck 10.0363 7.2531 -6.44102
head 0.856689 3.34387 -2.13232
rshoulderjoint 2.33271 -3.39095 -45.5553
rhumerus 32.6467 -73.1995 -52.5023
rradius 46.1417 -3.18055e-014 1.11319e-013
rwrist -1.16275e-013 8.16647 2.1046e-013
rhand 26.5265 -7.91756 12.9059
lshoulderjoint 6.08614 10.9528 40.3003
lhumerus 93.0928 67.3662 107.418
lradius 38.4053 -2.79094e-013 -2.8784e-013
lwrist -2.47389e-013 4.87831 -8.77832e-014
lhand 26.7049 -4.94015 7.79698
rfemur -18.1549 -6.32064 13.7743
rtibia -7.31528e-014 -1.35174e-014 -9.54166e-015
rfoot -1.9164 15.9813 -10.5576
rtoes 1.8487e-013 4.30369e-014 -2.06736e-013
lfemur -16.3046 -11.2494 -17.3917
ltibia 32.1321 -2.70347e-014 6.36111e-015
lfoot -16.2576 -1.42796 16.7652
ltoes -2.54444e-014 -5.56597e-015 3.02153e-014
327
root 5.71703 3.59891 -0.507752 84.3265 -73.6131 79.1471
lowerback -13.039 -1.34455 -2.3196
upperback -3.5544 -1.59712 -0.687853
thorax 3.61102 -0.866682 0.332121
lowerneck 15.4237 5.83379 -1.12462
upperneck 9.95987 7.13381 -6.43111
head 0.831382 3.29045 -2.13288
rshoulderjoint 2.33764 -3.39883 -45.5499
rhumerus 32.2059 -73.1789 -52.0575
rradius 46.1173 -1.62208e-013 -1.17681e-013
rwrist 4.26997e-013 8.21412 6.42704e-015
rhand 26.463 -8.069 12.9336
lshoulderjoint 6.06204 10.8777 40.3688
lhumerus 92.8484 67.4124 107.249
lradius 38.3894 3.10104e-013 1.91628e-013
lwrist -1.49608e-014 4.77591 -8.29825e-014
lhand 26.6031 -4.69754 7.8471
rfemur -18.4045 -6.32574 13.7643
rtibia 1.15295e-014 -7.95139e-015 4.77083e-015
rfoot -1.6497 16.0136 -10.5919
rtoes -1.44715e-013 8.61732e-014 -1.27222e-014
lfemur -16.4713 -11.0055 -17.5045
ltibia 32.797 -7.95139e-016 -1.35174e-014
lfoot -16.1238 -1.38022 16.592
ltoes -2.8625e-014 2.74323e-014 1.59028e-015
328
root 5.73167 3.59795 -0.503856 84.0871 -73.5824 79.0002
lowerback -12.9046 -1.34134 -2.3016
upperback -3.56374 -1.60064 -0.626505
thorax 3.52952 -0.867046 0.388936
lowerneck 15.4292 5.76303 -1.19379
upperneck 9.83107 7.02795 -6.39544
head 0.780766 3.24189 -2.10734
rshoulderjoint 2.36361 -3.43079 -45.5957
rhumerus 32.438 -73.196 -52.2421
rradius 46.0699 -1.19271e-013 -4.45278e-014
rwrist -3.31308e-013 8.11033 1.55815e-013
rhand 26.468 -7.91504 12.9049
lshoulderjoint 6.03371 10.8487 40.3178
lhumerus 92.9526 67.3872 107.411
lradius 38.3919 -1.31993e-013 -1.05753e-013
lwrist 5.0274e-014 4.85392 -4.788e-015
lhand 26.4405 -4.81216 7.93643
rfemur -18.6883 -6.25921 13.8026
rtibia 3.73715e-014 1.82882e-014 0
rfoot -1.39413 16.259 -10.6075
rtoes -4.09496e-014 -1.87106e-013 1.11319e-013
lfemur -16.6597 -10.649 -17.584
ltibia 33.4508 1.43125e-014 2.3059e-014
lfoot -16.0081 -1.5031 16.439
ltoes -3.18055e-014 -1.59028e-014 -2.70347e-014
329
root 5.74677 3.59652 -0.499571 83.9997 -73.5244 78.9566
lowerback -12.7986 -1.32857 -2.31318
upperback -3.59369 -1.58718 -0.601357
thorax 3.44106 -0.859626 0.42689
lowerneck 15.4509 5.68105 -1.18815
upperneck 9.71165 6.91835 -6.35659
head 0.733007 3.19393 -2.09387
rshoulderjoint 2.38275 -3.45456 -45.6272
rhumerus 32.4524 -73.1672 -52.2297
rradius 46.0295 -2.22639e-013 5.725e-014
rwrist -1.26095e-013 8.10013 4.17639e-013
rhand 26.4343 -7.88482 12.9801
lshoulderjoint 6.00478 10.7819 40.3486
lhumerus 92.9219 67.4018 107.461
lradius 38.3973 -1.36764e-013 -3.28392e-013
lwrist 1.46619e-013 4.79242 -3.60664e-013
lhand 26.3191 -4.7375 7.9871
rfemur -19.0132 -6.16643 13.7841
rtibia 0 -2.38542e-014 2.38542e-015
rfoot -1.15307 16.3625 -10.6388
rtoes -5.96354e-014 1.6037e-013 -1.81292e-013
lfemur -16.8693 -10.3642 -17.7046
ltibia 34.0682 -1.51076e-014 -2.38542e-014
lfoot -15.9383 -1.49473 16.3615
ltoes 3.81667e-014 1.43125e-014 4.6118e-014
330
root 5.7618 3.59478 -0.495157 83.8936 -73.5001 78.9227
lowerback -12.7096 -1.3131 -2.29641
upperback -3.58153 -1.57112 -0.563026
thorax 3.40563 -0.850624 0.461901
lowerneck 15.4502 5.60507 -1.22013
upperneck 9.55322 6.81198 -6.30912
head 0.67473 3.14799 -2.07097
rshoulderjoint 2.40087 -3.47663 -45.66
rhumerus 32.832 -73.1901 -52.5861
rradius 46.0175 3.49861e-014 5.24792e-014
rwrist 8.70871e-013 8.03185 -9.9574e-014
rhand 26.4494 -7.72558 13.0648
lshoulderjoint 5.96279 10.7165 40.3229
lhumerus 93.0738 67.3885 107.621
lradius 38.4008 3.87233e-013 2.13097e-013
lwrist 1.62597e-013 4.8725 -1.61201e-013
lhand 26.1852 -4.80868 8.06341
rfemur -19.3001 -6.07113 13.7857
rtibia 1.98785e-014 -1.03368e-014 -1.59028e-015
rfoot -0.931102 16.4728 -10.6686
rtoes -4.31363e-014 6.19711e-014 -6.67916e-014
lfemur -17.0277 -10.139 -17.7909
ltibia 34.6348 -5.56597e-015 -1.74931e-014
lfoot -16.0939 -1.55046 16.3278
ltoes 6.04305e-014 7.15625e-015 1.11319e-014
331
root 5.77703 3.59246 -0.490653 83.8026 -73.4909 78.9356
lowerback -12.6761 -1.30089 -2.25236
upperback -3.52905 -1.5593 -0.520362
thorax 3.44216 -0.84384 0.483437
lowerneck 15.4327 5.52715 -1.22375
upperneck 9.37477 6.70883 -6.26012
head 0.613636 3.10553 -2.05229
rshoulderjoint 2.40854 -3.48561 -45.6766
rhumerus 32.4401 -72.8656 -52.035
rradius 45.9849 1.00187e-013 3.33958e-014
rwrist -5.6066e-013 8.69842 -1.76966e-014
rhand 26.1679 -8.6383 13.424
lshoulderjoint 5.93908 10.68 40.3071
lhumerus 93.2863 67.3133 107.86
lradius 38.4247 -3.04538e-013 -1.7175e-013
lwrist -2.37394e-014 4.82109 1.14907e-013
lhand 26.1314 -4.77014 8.14075
rfemur -19.5737 -5.96477 13.8052
rtibia -3.45885e-014 7.95139e-015 7.95139e-016
rfoot -0.695233 16.4829 -10.6906
rtoes 4.4329e-014 -1.04561e-013 1.90833e-014
lfemur -17.1537 -9.91989 -17.8416
ltibia 35.1213 1.19271e-014 1.27222e-014
lfoot -16.2337 -1.74514 16.2495
ltoes -4.13472e-014 2.78299e-014 -4.29375e-014
332
root 5.79189 3.59026 -0.48689 83.5403 -73.5797 78.7837
lowerback -12.5116 -1.30004 -2.27573
upperback -3.53108 -1.56036 -0.468533
thorax 3.35242 -0.842928 0.554366
lowerneck 15.6494 5.43376 -1.1262
upperneck 9.16106 6.58467 -6.26006
head 0.508176 3.05864 -2.07479
rshoulderjoint 2.37633 -3.44133 -45.6575
rhumerus 32.5729 -72.9829 -52.1336
rradius 45.9712 2.38542e-014 9.06458e-014
rwrist -1.7872e-013 8.58014 1.19012e-013
rhand 26.3459 -8.3967 13.3186
lshoulderjoint 5.8602 10.521 40.3404
lhumerus 93.51 67.398 108.133
lradius 38.4413 -2.71937e-013 -2.79094e-013
lwrist -1.76585e-013 4.95568 -7.98122e-014
lhand 26.1113 -4.9865 8.24801
rfemur -19.7203 -5.89859 13.8388
rtibia -5.56597e-015 -2.38542e-015 -3.97569e-015
rfoot -0.491798 16.4939 -10.7382
rtoes 7.56376e-014 -3.33958e-014 -7.95139e-014
lfemur -17.1273 -9.75752 -17.862
ltibia 35.4831 -3.18055e-015 1.43125e-014
lfoot -16.2501 -1.92114 16.083
ltoes 0 -1.66979e-014 -1.27222e-014
333
root 5.80745 3.58765 -0.481871 83.3418 -73.6325 78.6926
lowerback -12.4421 -1.30711 -2.22442
upperback -3.43771 -1.57382 -0.409421
thorax 3.41298 -0.848203 0.585269
lowerneck 15.5649 5.37431 -1.17872
upperneck 8.99083 6.50273 -6.20328
head 0.459582 3.02403 -2.04357
rshoulderjoint 2.40204 -3.47499 -45.6858
rhumerus 33.5218 -73.0733 -53.095
rradius 45.9871 -2.70347e-013 4.29375e-014
rwrist 2.46969e-014 8.10058 4.46553e-013
rhand 26.7037 -7.79681 13.0754
lshoulderjoint 5.85568 10.5355 40.2882
lhumerus 93.4145 67.31 108.03
lradius 38.4572 -9.30312e-014 -2.44108e-013
lwrist -6.24566e-014 4.99348 -2.68184e-013
lhand 26.2094 -4.97978 8.2447
rfemur -19.9282 -5.82228 13.8474
rtibia -3.18055e-014 -1.27222e-014 -1.51076e-014
rfoot -0.270458 16.5005 -10.7796
rtoes 9.53172e-014 -8.12284e-014 -1.27222e-013
lfemur -17.1075 -9.76688 -17.8832
ltibia 35.7107 -2.14687e-014 3.18055e-015
lfoot -16.0614 -1.83643 15.9171
ltoes -1.62208e-013 2.38542e-014 5.725e-014
